PathFileType  4	(X/Y/Z) C:\Users\antoi\Documents\MyRepositories\mobilecap\ResultsAnalysis
DataRate	CameraRate	NumFrames	NumMarkers	Units	OrigDataRate	OrigDataStartFrame	OrigNumFrames
100.0	100.0	6	51	mm	100.0	754	861
Frame#	Time	r_knee			r_shank_antsup			r_ankle			r_calc			r_5meta			r_toe			L_knee			L_shank_antsup			L_ankle			L_calc			L_5meta			L_toe			r_sh2			r_sh3			r_sh4			L_sh2			L_sh3			r_thigh1			r_thigh2			r_thigh3			r_thigh4			r_thigh5			L_thigh1			L_thigh2			L_thigh3			L_thigh4			r.ASIS			r.PSIS			L.ASIS			L.PSIS			C7			R_Shoulder			L_Shoulder			R_Sternum			L_Sternum			R_humerus			R_elbow_med			R_elbow_lat			R_forearm			R_wrist_radius			R_wrist_ulna			L_humerus			L_elbow_med			L_elbow_lat			L_forearm			L_wrist_radius			L_wrist_ulna			R_HJC			L_HJC			R_HJC_reg			L_HJC_reg			
		X1	Y1	Z1	X2	Y2	Z2	X3	Y3	Z3	X4	Y4	Z4	X5	Y5	Z5	X6	Y6	Z6	X7	Y7	Z7	X8	Y8	Z8	X9	Y9	Z9	X10	Y10	Z10	X11	Y11	Z11	X12	Y12	Z12	X13	Y13	Z13	X14	Y14	Z14	X15	Y15	Z15	X16	Y16	Z16	X17	Y17	Z17	X18	Y18	Z18	X19	Y19	Z19	X20	Y20	Z20	X21	Y21	Z21	X22	Y22	Z22	X23	Y23	Z23	X24	Y24	Z24	X25	Y25	Z25	X26	Y26	Z26	X27	Y27	Z27	X28	Y28	Z28	X29	Y29	Z29	X30	Y30	Z30	X31	Y31	Z31	X32	Y32	Z32	X33	Y33	Z33	X34	Y34	Z34	X35	Y35	Z35	X36	Y36	Z36	X37	Y37	Z37	X38	Y38	Z38	X39	Y39	Z39	X40	Y40	Z40	X41	Y41	Z41	X42	Y42	Z42	X43	Y43	Z43	X44	Y44	Z44	X45	Y45	Z45	X46	Y46	Z46	X47	Y47	Z47	X48	Y48	Z48	X49	Y49	Z49	X50	Y50	Z50	X51	Y51	Z51	

754	7.53000000	-238.44110	613.72658	-396.16001	-214.22350	466.19430	-376.69821	-298.22517	106.93555	-329.14113	-351.08590	73.52587	-395.31990	-169.17726	44.13780	-280.26735	-124.17092	68.62673	-326.62533	-259.56377	613.07436	-875.54493	-217.37976	412.24595	-879.53883	-318.52478	117.70796	-921.47997	-375.29112	76.51219	-862.86141	-184.16364	37.48484	-972.41049	-137.19688	64.91238	-914.91134	-222.31341	353.77062	-364.19096	-280.96971	473.02438	-342.99574	-292.15739	363.08988	-321.99663	-286.48921	432.18611	-932.42240	-303.60199	314.04847	-931.70705	-247.05334	915.21697	-414.78107	-216.67970	808.70978	-399.02718	-272.97192	770.04697	-389.73599	-351.72493	883.88185	-441.66436	-322.52902	771.20781	-417.01036	-228.28085	914.24275	-843.81932	-213.34105	780.34908	-856.66370	-337.55997	907.94162	-858.91999	-319.37068	772.26066	-878.00041	-239.53599	1182.04819	-505.72776	-429.55363	1186.46039	-585.84591	-254.12043	1175.76199	-774.11258	-433.57906	1189.94109	-677.43066	-361.93865	1684.40979	-646.23653	-285.33753	1656.43968	-478.36214	-318.54799	1671.52602	-812.30286	-211.14065	1610.39670	-624.29818	-214.37172	1609.71595	-675.26592	-268.24436	1408.01546	-373.38920	-355.73728	1278.30836	-353.66219	-297.84185	1312.91656	-298.58450	-159.71798	1293.29276	-460.25516	-109.48302	1292.16481	-529.74420	-97.62913	1260.37331	-513.26876	-279.98272	1399.09459	-904.22145	-372.08630	1300.32392	-908.54163	-304.85815	1319.07733	-960.04549	-153.74141	1300.41886	-820.08765	-111.19217	1302.23846	-759.79395	-100.46419	1276.66946	-781.07360	-305.36680	1076.83776	-537.56911	-320.60165	1076.38772	-734.45647	-297.57127	1084.08099	-545.11124	-305.35548	1090.81331	-722.25615	
755	7.54000000	-236.22529	613.41791	-395.66611	-212.21487	465.78828	-376.43390	-298.12142	107.04238	-329.11931	-351.12249	73.49498	-395.30244	-169.13786	44.25239	-280.45299	-124.25583	68.92674	-326.89493	-258.38310	612.95915	-876.17952	-216.35526	412.00252	-879.71897	-318.47454	117.80636	-921.40661	-375.29023	76.60831	-862.82236	-184.13989	37.55384	-972.25179	-137.16193	65.04088	-914.78239	-220.93263	353.37611	-364.14629	-278.78163	472.82775	-342.67441	-290.61096	363.49516	-321.49692	-285.32240	432.21317	-932.57257	-302.84809	313.96320	-931.62421	-251.54177	914.32964	-414.80392	-218.92149	808.48402	-398.95493	-274.43601	768.73484	-389.24033	-355.66365	880.90478	-441.14943	-324.15549	768.84979	-416.33686	-232.79848	914.02802	-843.87749	-215.50966	780.37051	-856.84722	-341.95698	905.85010	-858.45988	-321.40923	770.44446	-877.76313	-246.20532	1179.85176	-505.55633	-435.79032	1187.73210	-585.99932	-260.83942	1173.63950	-774.05892	-439.51310	1191.11362	-677.38407	-357.47952	1683.78004	-646.15651	-280.70343	1655.10895	-478.70907	-313.69898	1670.70796	-811.98029	-208.16534	1607.59293	-624.77769	-211.62418	1607.13161	-675.47407	-263.83803	1407.10263	-374.85715	-351.51945	1277.05986	-354.96301	-293.47957	1311.59162	-299.60643	-154.90742	1291.83250	-461.04873	-104.64401	1290.70595	-530.26626	-92.87549	1258.70003	-514.46137	-275.29070	1398.62872	-903.17345	-367.59078	1299.97194	-908.79075	-300.16427	1318.32938	-959.81083	-149.37356	1299.38525	-819.64820	-106.70125	1300.96352	-759.43336	-96.13717	1275.29775	-780.69300	-313.78749	1075.84435	-537.43061	-328.91035	1075.50945	-734.32670	-306.19350	1083.04013	-544.92544	-313.41466	1089.59974	-722.17884	
756	7.55000000	-234.39492	613.13146	-395.28017	-210.35505	465.38694	-376.23310	-297.85152	107.14261	-329.18760	-351.16018	73.50525	-395.42781	-169.10096	44.41614	-280.65185	-124.28420	69.22429	-327.24933	-257.53602	612.44338	-876.21948	-215.40062	411.69589	-880.03527	-318.46366	117.87005	-921.34518	-375.31661	76.68121	-862.82785	-184.13921	37.61814	-972.18586	-137.18985	65.13752	-914.73655	-219.64244	352.90691	-364.25810	-276.85769	472.77129	-342.28191	-289.00659	363.31126	-321.18386	-284.34592	432.22407	-932.78885	-302.26516	313.88464	-931.64724	-256.49278	913.24538	-414.73016	-221.51002	808.16554	-398.73790	-276.14005	767.19437	-388.69660	-359.94364	877.58649	-440.45983	-325.97970	766.32640	-415.60585	-237.72794	913.67552	-844.02084	-218.02039	780.28446	-857.14561	-346.80568	903.45888	-857.93541	-323.87464	768.37703	-877.39912	-253.10666	1177.01233	-505.50147	-442.16788	1188.72592	-585.96299	-267.66697	1171.11465	-774.24680	-445.69131	1192.01507	-677.44826	-352.67504	1682.53417	-646.09605	-275.83496	1653.25381	-479.27930	-308.56602	1669.15601	-811.54718	-204.89227	1604.10499	-625.07972	-208.42444	1603.82535	-675.48726	-259.20203	1405.58367	-376.37443	-347.17076	1275.47395	-355.82268	-288.77198	1309.75159	-300.52751	-149.97002	1290.07971	-461.79852	-99.59696	1289.12670	-530.80788	-87.84600	1257.09620	-514.99360	-270.16404	1397.56319	-902.27074	-362.61551	1298.84768	-909.08462	-294.97444	1316.98948	-959.70986	-144.64476	1298.09362	-819.24816	-101.89834	1299.41974	-759.32102	-91.41313	1273.79308	-780.19222	-322.52404	1074.36843	-537.45897	-337.59300	1074.32937	-734.35945	-315.09697	1081.59690	-544.82002	-321.93102	1087.97688	-722.24865	
757	7.56000000	-233.02878	612.87467	-394.75031	-208.79969	465.00355	-376.02466	-297.70177	107.08425	-329.43036	-351.22816	73.43842	-395.58655	-169.08250	44.47861	-281.07018	-124.32493	69.61815	-327.55661	-256.68653	611.86444	-876.50662	-214.42672	411.39900	-880.45734	-318.45213	117.90574	-921.32438	-375.36748	76.71387	-862.87145	-184.15091	37.65184	-972.15904	-137.27369	65.17185	-914.68991	-218.60818	352.45692	-364.29363	-275.23964	472.76590	-341.82497	-287.67878	362.80750	-320.98501	-283.51121	432.22627	-933.06446	-301.78897	313.97022	-931.83322	-261.87451	911.95886	-414.51306	-224.48451	807.79155	-398.28566	-278.14128	765.55203	-388.07285	-364.57041	873.91350	-439.83275	-328.00027	763.58543	-414.84701	-243.16489	913.02276	-844.01005	-220.75085	780.14728	-857.72268	-352.01977	900.70730	-857.34401	-326.57331	766.13511	-877.34887	-260.26308	1173.39780	-505.48005	-448.69990	1189.31311	-586.02580	-274.68336	1167.99206	-774.91325	-452.08729	1192.63248	-677.66424	-347.60642	1680.59479	-646.10278	-270.82328	1650.71374	-479.81351	-303.26868	1666.57782	-810.83439	-201.36029	1599.95589	-625.13077	-204.93777	1599.66501	-675.39905	-254.30418	1403.43061	-377.80132	-342.40887	1273.28176	-356.57051	-283.82623	1307.26483	-301.27012	-144.99377	1288.10552	-462.33003	-94.38557	1287.23584	-531.39165	-82.57535	1255.25229	-515.28420	-264.68648	1395.76490	-901.50902	-357.13457	1296.96242	-909.41709	-289.32187	1315.01160	-959.72583	-139.51398	1296.43782	-818.97379	-96.75201	1297.58802	-759.35887	-86.27958	1272.06982	-779.72534	-331.67192	1072.30126	-537.75662	-346.71033	1072.72192	-734.65925	-324.28635	1079.33297	-544.91780	-330.86059	1085.77656	-722.79595	
758	7.57000000	-231.97149	612.46132	-394.13318	-207.58069	464.60197	-375.71114	-297.79456	106.94471	-329.68275	-351.34207	73.20190	-395.56959	-169.03960	44.35976	-281.65203	-124.38145	69.98324	-327.79187	-255.81733	611.32410	-877.14418	-213.48161	411.13189	-881.05248	-318.43836	117.90731	-921.38848	-375.43207	76.69819	-862.94685	-184.17039	37.67161	-972.12328	-137.41346	65.22821	-914.64192	-217.84270	352.13920	-364.13389	-273.98945	472.58889	-341.50170	-286.80989	362.47041	-320.94781	-282.73294	432.13228	-933.37742	-301.41674	314.00040	-932.16593	-267.73873	910.35421	-414.07996	-227.87934	807.32733	-397.66280	-280.52854	763.82007	-387.42225	-369.56906	869.90580	-439.43028	-330.30221	760.47095	-414.25310	-249.06834	912.21186	-844.25483	-223.71836	779.98273	-858.65930	-357.64735	897.57089	-856.82098	-329.37145	763.74137	-877.73181	-267.70881	1168.93638	-505.42627	-455.47224	1189.44764	-586.34670	-281.95994	1164.22135	-775.27863	-458.65208	1192.86598	-677.98236	-342.37560	1677.85080	-646.15241	-265.69398	1647.23961	-480.30588	-297.74898	1662.98640	-809.96757	-197.73378	1594.92582	-625.18436	-201.40654	1594.53318	-675.30906	-249.15074	1400.53694	-379.13135	-337.19170	1270.17424	-357.32025	-278.58480	1304.03650	-301.84241	-139.84394	1285.78137	-462.75353	-88.96951	1285.02534	-532.01816	-77.08023	1252.99360	-515.81046	-258.89922	1393.15518	-900.72669	-351.16488	1294.32503	-910.00419	-283.25593	1312.36501	-959.89995	-133.94891	1294.34532	-818.89800	-91.24365	1295.43930	-759.28519	-80.69857	1270.02607	-779.46629	-341.37511	1069.60317	-538.09807	-356.18192	1070.61298	-735.01596	-333.94576	1076.48261	-545.04832	-340.12714	1083.12772	-723.19515	
759	7.58000000	-231.10133	611.92786	-393.54812	-206.61772	464.18580	-375.26858	-298.04191	106.81734	-329.83274	-351.48967	72.91502	-395.39841	-168.97239	44.30096	-282.02787	-124.48047	70.28006	-327.95512	-255.14884	610.60226	-877.54601	-212.63710	410.75878	-881.75480	-318.43910	117.86081	-921.51893	-375.52297	76.59274	-863.03399	-184.20295	37.69053	-972.09034	-137.58618	65.38182	-914.68303	-217.26325	351.87453	-363.85953	-273.11951	472.31657	-341.36230	-286.39987	362.34692	-321.00710	-281.96077	431.89615	-933.73473	-301.10162	313.77543	-932.58757	-273.94850	908.58489	-413.55906	-231.70540	806.58205	-397.07196	-283.33569	761.84016	-386.86289	-374.91970	865.63216	-439.10794	-332.93962	757.09324	-413.87241	-255.33430	911.37168	-845.17195	-227.02715	779.73252	-859.78329	-363.70662	894.06010	-856.58369	-332.28575	761.12150	-878.35388	-275.60442	1163.83468	-505.58671	-462.46559	1189.15939	-586.74097	-289.34779	1159.94355	-774.89137	-465.31158	1192.65922	-678.28552	-337.03114	1674.20223	-646.24184	-260.36800	1642.75111	-480.94241	-291.90257	1658.64464	-809.29037	-194.07979	1588.91380	-625.26314	-198.05760	1588.38860	-675.40695	-243.77266	1396.80465	-380.27946	-331.58307	1266.09763	-357.75368	-272.85837	1300.00867	-302.25237	-134.31895	1282.88479	-463.30839	-83.38392	1282.34704	-532.55203	-71.33270	1250.32378	-516.44909	-252.75681	1389.74438	-900.04903	-344.73707	1290.81190	-910.88255	-276.77220	1308.98531	-960.22801	-127.93565	1291.71540	-818.87611	-85.35192	1292.87054	-759.08852	-74.64874	1267.57720	-779.35791	-351.55311	1066.41110	-538.33323	-365.84291	1068.08672	-735.28435	-344.08258	1073.51899	-545.28979	-349.60965	1080.31485	-723.06527	
